<mxfile host="app.diagrams.net" modified="2022-08-25T08:53:43.447Z" agent="5.0 (Macintosh; Intel Mac OS X 10_15_7) AppleWebKit/537.36 (KHTML, like Gecko) Chrome/104.0.0.0 Safari/537.36" etag="uCEZLnx48JimyoEtGQnj" version="20.2.6" type="github">
  <diagram id="jQngKRU3zn1cv8egTmBT" name="第 1 页">
    <mxGraphModel dx="1426" dy="1849" grid="1" gridSize="10" guides="1" tooltips="1" connect="1" arrows="1" fold="1" page="1" pageScale="1" pageWidth="827" pageHeight="1169" math="0" shadow="0">
      <root>
        <mxCell id="0" />
        <mxCell id="1" parent="0" />
        <mxCell id="IznxnagQ2O-Da6u1XyGH-5" style="edgeStyle=orthogonalEdgeStyle;rounded=0;orthogonalLoop=1;jettySize=auto;html=1;entryX=0.5;entryY=0;entryDx=0;entryDy=0;strokeColor=#3399FF;" edge="1" parent="1" source="IznxnagQ2O-Da6u1XyGH-1" target="IznxnagQ2O-Da6u1XyGH-2">
          <mxGeometry relative="1" as="geometry" />
        </mxCell>
        <mxCell id="IznxnagQ2O-Da6u1XyGH-6" style="edgeStyle=orthogonalEdgeStyle;rounded=0;orthogonalLoop=1;jettySize=auto;html=1;entryX=0.5;entryY=0;entryDx=0;entryDy=0;strokeColor=#3399FF;" edge="1" parent="1" source="IznxnagQ2O-Da6u1XyGH-1" target="IznxnagQ2O-Da6u1XyGH-4">
          <mxGeometry relative="1" as="geometry" />
        </mxCell>
        <mxCell id="IznxnagQ2O-Da6u1XyGH-7" style="edgeStyle=orthogonalEdgeStyle;rounded=0;orthogonalLoop=1;jettySize=auto;html=1;entryX=0.5;entryY=0;entryDx=0;entryDy=0;strokeColor=#3399FF;" edge="1" parent="1" source="IznxnagQ2O-Da6u1XyGH-1" target="IznxnagQ2O-Da6u1XyGH-3">
          <mxGeometry relative="1" as="geometry" />
        </mxCell>
        <mxCell id="IznxnagQ2O-Da6u1XyGH-1" value="产品中心" style="rounded=0;whiteSpace=wrap;html=1;fontSize=24;strokeColor=#97D077;" vertex="1" parent="1">
          <mxGeometry x="330" y="-620" width="140" height="50" as="geometry" />
        </mxCell>
        <mxCell id="IznxnagQ2O-Da6u1XyGH-2" value="列表展示" style="rounded=0;whiteSpace=wrap;html=1;fontSize=24;strokeColor=#97D077;" vertex="1" parent="1">
          <mxGeometry x="300" y="-510" width="40" height="130" as="geometry" />
        </mxCell>
        <mxCell id="IznxnagQ2O-Da6u1XyGH-3" value="获取产品" style="rounded=0;whiteSpace=wrap;html=1;fontSize=24;strokeColor=#97D077;" vertex="1" parent="1">
          <mxGeometry x="460" y="-510" width="40" height="130" as="geometry" />
        </mxCell>
        <mxCell id="IznxnagQ2O-Da6u1XyGH-4" value="查看详情" style="rounded=0;whiteSpace=wrap;html=1;fontSize=24;strokeColor=#97D077;" vertex="1" parent="1">
          <mxGeometry x="380" y="-510" width="40" height="130" as="geometry" />
        </mxCell>
      </root>
    </mxGraphModel>
  </diagram>
</mxfile>
